<svg xmlns:dc="http://purl.org/dc/elements/1.1/" xmlns:cc="http://creativecommons.org/ns#" xmlns:rdf="http://www.w3.org/1999/02/22-rdf-syntax-ns#" xmlns:svg="http://www.w3.org/2000/svg" xmlns="http://www.w3.org/2000/svg" xmlns:sodipodi="http://sodipodi.sourceforge.net/DTD/sodipodi-0.dtd" xmlns:inkscape="http://www.inkscape.org/namespaces/inkscape" version="1.1" x="0px" y="0px" viewBox="0 0 36 45"><g transform="translate(0,-1016.3622)"><path style="text-indent:0;text-transform:none;direction:ltr;block-progression:tb;baseline-shift:baseline;color:#000000;enable-background:accumulate;" d="m 5,1019.3622 26,0 c 1.11666,0 2,0.8833 2,2 l 0,26 c 0,1.1167 -0.88334,2 -2,2 l -26,0 c -1.11666,0 -2,-0.8833 -2,-2 l 0,-26 c 0,-1.1167 0.88335,-2 2,-2 z m 0.75,1 c -0.96057,0 -1.75,0.7894 -1.75,1.75 0,0.9606 0.78943,1.75 1.75,1.75 0.96059,0 1.75001,-0.7894 1.75,-1.75 10e-6,-0.9606 -0.78941,-1.75 -1.75,-1.75 z m 24.5,0 c -0.96057,0 -1.75,0.7894 -1.75,1.75 0,0.9606 0.78943,1.75 1.75,1.75 0.96059,0 1.75001,-0.7894 1.75,-1.75 1e-5,-0.9606 -0.78941,-1.75 -1.75,-1.75 z m -24.5,1 c 0.42015,0 0.75,0.3299 0.75,0.75 0,0.4201 -0.32985,0.75 -0.75,0.75 -0.42014,0 -0.75,-0.3299 -0.75,-0.75 0,-0.4201 0.32986,-0.75 0.75,-0.75 z m 8.75,0 0,3 -1,0 c -0.27613,0 -0.49997,0.2239 -0.5,0.5 l 0,1.5 -1.5625,0 c -0.78773,0 -1.4375,0.6498 -1.4375,1.4375 l 0,1.5625 -1.5,0 c -0.27613,0 -0.49997,0.2239 -0.5,0.5 l 0,1 -3,0 0,1 3,0 0,1 -3,0 0,1 3,0 0,1 -3,0 0,1 3,0 0,1 -3,0 0,1 3,0 0,0.9648 0,0.035 c 3e-5,0.2762 0.22387,0.5 0.5,0.5 l 1.5,0 0,1.5625 c 0,0.7878 0.64977,1.4375 1.4375,1.4375 l 1.5625,0 0,1.5 c 3e-5,0.2762 0.22387,0.5 0.5,0.5 l 1,0 0,3 1,0 0,-3 1,0 0,3 1,0 0,-3 1,0 0,3 1,0 0,-3 1,0 0,3 1,0 0,-3 1,0 c 0.0163,-5e-4 0.0326,0 0.0488,0 0.25541,-0.025 0.45037,-0.2394 0.45117,-0.496 l 0,-1.5 1.5625,0 c 0.78774,0 1.4375,-0.6498 1.4375,-1.4375 l 0,-1.5625 1.5,0 -0.008,-0.01 c 0.27614,0 0.5035,-0.2161 0.50781,-0.4922 l 0,-1 3,0 0,-1 -3,0 0,-1 3,0 0,-1 -3,0 0,-1 3,0 0,-1 -3,0 0,-1 3,0 0,-1 -3,0 0,-1 c -3e-5,-0.2762 -0.22387,-0.5 -0.5,-0.5 l -1.5,0 0,-1.5625 c 0,-0.7878 -0.64976,-1.4375 -1.4375,-1.4375 l -1.5625,0 0,-1.5 -0.5,0.5 0,-1 -1,0 0,-3 -1,0 0,3 -1,0 0,-3 -1,0 0,3 -1,0 0,-3 -1,0 0,3 -1,0 0,-3 z m 15.75,0 c 0.42015,0 0.75,0.3299 0.75,0.75 0,0.4201 -0.32985,0.75 -0.75,0.75 -0.42014,0 -0.75,-0.3299 -0.75,-0.75 0,-0.4201 0.32986,-0.75 0.75,-0.75 z m -16.25,4 8,0 0,1 -8,0 z m -2.5625,2 13.125,0 c 0.25103,0 0.4375,0.1865 0.4375,0.4375 l 0,2.0547 0,0.01 0,8.9648 0,0.035 0,2.0625 c 0,0.2511 -0.18647,0.4375 -0.4375,0.4375 l -13.125,0 c -0.25102,0 -0.4375,-0.1882 -0.4375,-0.4393 l 0,-13.125 c 0,-0.251 0.18648,-0.4375 0.4375,-0.4375 z m 2.52735,2.5 c -0.26233,0.018 -0.4655,0.237 -0.46485,0.5 0,0.2761 0.22386,0.5 0.5,0.5 0.27614,0 0.5,-0.2239 0.5,-0.5 0,-0.2761 -0.22386,-0.5 -0.5,-0.5 -0.0117,-4e-4 -0.0234,-4e-4 -0.0351,0 z m 2,0 c -0.26233,0.018 -0.4655,0.237 -0.46485,0.5 0,0.2761 0.22386,0.5 0.5,0.5 0.27614,0 0.5,-0.2239 0.5,-0.5 0,-0.2761 -0.22386,-0.5 -0.5,-0.5 -0.0117,-4e-4 -0.0234,-4e-4 -0.0351,0 z m 2,0 c -0.26233,0.018 -0.4655,0.237 -0.46485,0.5 0,0.2761 0.22386,0.5 0.5,0.5 0.27614,0 0.5,-0.2239 0.5,-0.5 0,-0.2761 -0.22386,-0.5 -0.5,-0.5 -0.0117,-4e-4 -0.0234,-4e-4 -0.0351,0 z m 2,0 c -0.26233,0.018 -0.4655,0.237 -0.46485,0.5 0,0.2761 0.22386,0.5 0.5,0.5 0.27614,0 0.5,-0.2239 0.5,-0.5 0,-0.2761 -0.22386,-0.5 -0.5,-0.5 -0.0117,-4e-4 -0.0234,-4e-4 -0.0351,0 z m 2,0 c -0.26233,0.018 -0.4655,0.237 -0.46485,0.5 0,0.2761 0.22386,0.5 0.5,0.5 0.27614,0 0.5,-0.2239 0.5,-0.5 0,-0.2761 -0.22386,-0.5 -0.5,-0.5 -0.0117,-4e-4 -0.0234,-4e-4 -0.0351,0 z m -12.96485,0.5 1,0 0,8 -1,0 z m 17,0 1,0 0,8 -1,0 z m -11.03515,1.5 c -0.26233,0.018 -0.4655,0.237 -0.46485,0.5 0,0.2761 0.22386,0.5 0.5,0.5 0.27614,0 0.5,-0.2239 0.5,-0.5 0,-0.2761 -0.22386,-0.5 -0.5,-0.5 -0.0117,-4e-4 -0.0234,-4e-4 -0.0351,0 z m 2,0 c -0.26233,0.018 -0.4655,0.237 -0.46485,0.5 0,0.2761 0.22386,0.5 0.5,0.5 0.27614,0 0.5,-0.2239 0.5,-0.5 0,-0.2761 -0.22386,-0.5 -0.5,-0.5 -0.0117,-4e-4 -0.0234,-4e-4 -0.0351,0 z m 2,0 c -0.26233,0.018 -0.4655,0.237 -0.46485,0.5 0,0.2761 0.22386,0.5 0.5,0.5 0.27614,0 0.5,-0.2239 0.5,-0.5 0,-0.2761 -0.22386,-0.5 -0.5,-0.5 -0.0117,-4e-4 -0.0234,-4e-4 -0.0351,0 z m 2,0 c -0.26233,0.018 -0.4655,0.237 -0.46485,0.5 0,0.2761 0.22386,0.5 0.5,0.5 0.27614,0 0.5,-0.2239 0.5,-0.5 0,-0.2761 -0.22386,-0.5 -0.5,-0.5 -0.0117,-4e-4 -0.0234,-4e-4 -0.0351,0 z m -7,2 c -0.26233,0.018 -0.4655,0.237 -0.46485,0.5 0,0.2761 0.22386,0.5 0.5,0.5 0.27614,0 0.5,-0.2239 0.5,-0.5 0,-0.2761 -0.22386,-0.5 -0.5,-0.5 -0.0117,-4e-4 -0.0234,-4e-4 -0.0351,0 z m 2,0 c -0.26233,0.018 -0.4655,0.237 -0.46485,0.5 0,0.2761 0.22386,0.5 0.5,0.5 0.27614,0 0.5,-0.2239 0.5,-0.5 0,-0.2761 -0.22386,-0.5 -0.5,-0.5 -0.0117,-4e-4 -0.0234,-4e-4 -0.0351,0 z m 2,0 c -0.26233,0.018 -0.4655,0.237 -0.46485,0.5 0,0.2761 0.22386,0.5 0.5,0.5 0.27614,0 0.5,-0.2239 0.5,-0.5 0,-0.2761 -0.22386,-0.5 -0.5,-0.5 -0.0117,-4e-4 -0.0234,-4e-4 -0.0351,0 z m 2,0 c -0.26233,0.018 -0.4655,0.237 -0.46485,0.5 0,0.2761 0.22386,0.5 0.5,0.5 0.27614,0 0.5,-0.2239 0.5,-0.5 0,-0.2761 -0.22386,-0.5 -0.5,-0.5 -0.0117,-4e-4 -0.0234,-4e-4 -0.0351,0 z m 2,0 c -0.26233,0.018 -0.4655,0.237 -0.46485,0.5 0,0.2761 0.22386,0.5 0.5,0.5 0.27614,0 0.5,-0.2239 0.5,-0.5 0,-0.2761 -0.22386,-0.5 -0.5,-0.5 -0.0117,-4e-4 -0.0234,-4e-4 -0.0351,0 z m -7,2 c -0.26233,0.018 -0.4655,0.237 -0.46485,0.5 0,0.2761 0.22386,0.5 0.5,0.5 0.27614,0 0.5,-0.2239 0.5,-0.5 0,-0.2761 -0.22386,-0.5 -0.5,-0.5 -0.0117,-4e-4 -0.0234,-4e-4 -0.0351,0 z m 2,0 c -0.26233,0.018 -0.4655,0.237 -0.46485,0.5 0,0.2761 0.22386,0.5 0.5,0.5 0.27614,0 0.5,-0.2239 0.5,-0.5 0,-0.2761 -0.22386,-0.5 -0.5,-0.5 -0.0117,-4e-4 -0.0234,-4e-4 -0.0351,0 z m 2,0 c -0.26233,0.018 -0.4655,0.237 -0.46485,0.5 0,0.2761 0.22386,0.5 0.5,0.5 0.27614,0 0.5,-0.2239 0.5,-0.5 0,-0.2761 -0.22386,-0.5 -0.5,-0.5 -0.0117,-4e-4 -0.0234,-4e-4 -0.0351,0 z m 2,0 c -0.26233,0.018 -0.4655,0.237 -0.46485,0.5 0,0.2761 0.22386,0.5 0.5,0.5 0.27614,0 0.5,-0.2239 0.5,-0.5 0,-0.2761 -0.22386,-0.5 -0.5,-0.5 -0.0117,-4e-4 -0.0234,-4e-4 -0.0351,0 z m -7,2 c -0.26233,0.018 -0.4655,0.237 -0.46485,0.5 0,0.2761 0.22386,0.5 0.5,0.5 0.27614,0 0.5,-0.2239 0.5,-0.5 0,-0.2761 -0.22386,-0.5 -0.5,-0.5 -0.0117,-4e-4 -0.0234,-4e-4 -0.0351,0 z m 2,0 c -0.26233,0.018 -0.4655,0.237 -0.46485,0.5 0,0.2761 0.22386,0.5 0.5,0.5 0.27614,0 0.5,-0.2239 0.5,-0.5 0,-0.2761 -0.22386,-0.5 -0.5,-0.5 -0.0117,-4e-4 -0.0234,-4e-4 -0.0351,0 z m 2,0 c -0.26233,0.018 -0.4655,0.237 -0.46485,0.5 0,0.2761 0.22386,0.5 0.5,0.5 0.27614,0 0.5,-0.2239 0.5,-0.5 0,-0.2761 -0.22386,-0.5 -0.5,-0.5 -0.0117,-4e-4 -0.0234,-4e-4 -0.0351,0 z m 2,0 c -0.26233,0.018 -0.4655,0.237 -0.46485,0.5 0,0.2761 0.22386,0.5 0.5,0.5 0.27614,0 0.5,-0.2239 0.5,-0.5 0,-0.2761 -0.22386,-0.5 -0.5,-0.5 -0.0117,-4e-4 -0.0234,-4e-4 -0.0351,0 z m 2,0 c -0.26233,0.018 -0.4655,0.237 -0.46485,0.5 0,0.2761 0.22386,0.5 0.5,0.5 0.27614,0 0.5,-0.2239 0.5,-0.5 0,-0.2761 -0.22386,-0.5 -0.5,-0.5 -0.0117,-4e-4 -0.0234,-4e-4 -0.0351,0 z m -7.96485,4.5 8,0 0,1 -8,0 z m -8.25,2.5 c -0.96057,0 -1.75,0.7894 -1.75,1.75 0,0.9606 0.78943,1.75 1.75,1.75 0.96059,0 1.75001,-0.7894 1.75,-1.75 10e-6,-0.9606 -0.78941,-1.75 -1.75,-1.75 z m 24.5,0 c -0.96057,0 -1.75,0.7894 -1.75,1.75 0,0.9606 0.78943,1.75 1.75,1.75 0.96059,0 1.75001,-0.7894 1.75,-1.75 1e-5,-0.9606 -0.78941,-1.75 -1.75,-1.75 z m -24.5,1 c 0.42015,0 0.75,0.3299 0.75,0.75 0,0.4201 -0.32985,0.75 -0.75,0.75 -0.42014,0 -0.75,-0.3299 -0.75,-0.75 0,-0.4201 0.32986,-0.75 0.75,-0.75 z m 24.5,0 c 0.42015,0 0.75,0.3299 0.75,0.75 0,0.4201 -0.32985,0.75 -0.75,0.75 -0.42014,0 -0.75,-0.3299 -0.75,-0.75 0,-0.4201 0.32986,-0.75 0.75,-0.75 z" fill="#000000" fill-opacity="1" fill-rule="nonzero" stroke="none" visibility="visible" display="inline" overflow="visible"/></g><text x="0" y="51" fill="#000000" font-size="5px" font-weight="bold" font-family="'Helvetica Neue', Helvetica, Arial-Unicode, Arial, Sans-serif">Created by Chameleon Design</text><text x="0" y="56" fill="#000000" font-size="5px" font-weight="bold" font-family="'Helvetica Neue', Helvetica, Arial-Unicode, Arial, Sans-serif">from the Noun Project</text></svg>